# 3ds Max Wavefront OBJ Exporter v0.97b - (c)2007 guruware
# File Created: 18.01.2016 04:26:06

mtllib Hose.mtl

#
# object Hose001
#

v  -0.0000 0.0000 -2.1369
v  1.5110 0.0000 -1.5110
v  0.0000 0.0000 -0.0000
v  -1.5110 0.0000 -1.5110
v  -2.1369 0.0000 0.0000
v  -1.5110 0.0000 1.5110
v  0.0000 0.0000 2.1369
v  1.5110 0.0000 1.5110
v  2.1369 0.0000 -0.0000
v  -0.0000 1.0685 -2.1369
v  1.5110 1.0685 -1.5110
v  -1.5110 1.0685 -1.5110
v  -2.1369 1.0685 0.0000
v  -1.5110 1.0685 1.5110
v  0.0000 1.0685 2.1369
v  1.5110 1.0685 1.5110
v  2.1369 1.0685 -0.0000
v  -0.0000 2.1369 -1.4073
v  0.9951 2.1369 -0.9951
v  -0.9951 2.1369 -0.9951
v  -1.4073 2.1369 0.0000
v  -0.9951 2.1369 0.9951
v  0.0000 2.1369 1.4073
v  0.9951 2.1369 0.9951
v  1.4073 2.1369 -0.0000
v  -0.0000 3.2054 -1.7095
v  1.2088 3.2054 -1.2088
v  -1.2088 3.2054 -1.2088
v  -1.7095 3.2054 0.0000
v  -1.2088 3.2054 1.2088
v  0.0000 3.2054 1.7095
v  1.2088 3.2054 1.2088
v  1.7095 3.2054 -0.0000
v  -0.0000 4.2739 -2.0118
v  1.4225 4.2739 -1.4225
v  -1.4225 4.2739 -1.4225
v  -2.0118 4.2739 0.0000
v  -1.4225 4.2739 1.4225
v  0.0000 4.2739 2.0118
v  1.4225 4.2739 1.4225
v  2.0118 4.2739 -0.0000
v  -0.0000 5.3423 -1.2822
v  0.9066 5.3423 -0.9066
v  -0.9066 5.3423 -0.9066
v  -1.2822 5.3423 0.0000
v  -0.9066 5.3423 0.9066
v  0.0000 5.3423 1.2822
v  0.9066 5.3423 0.9066
v  1.2822 5.3423 -0.0000
v  -0.0000 6.4108 -2.0118
v  1.4225 6.4108 -1.4225
v  -1.4225 6.4108 -1.4225
v  -2.0118 6.4108 0.0000
v  -1.4225 6.4108 1.4225
v  0.0000 6.4108 2.0118
v  1.4225 6.4108 1.4225
v  2.0118 6.4108 -0.0000
v  -0.0000 7.4793 -1.7095
v  1.2088 7.4793 -1.2088
v  -1.2088 7.4793 -1.2088
v  -1.7095 7.4793 0.0000
v  -1.2088 7.4793 1.2088
v  0.0000 7.4793 1.7095
v  1.2088 7.4793 1.2088
v  1.7095 7.4793 -0.0000
v  -0.0000 8.5477 -1.4073
v  0.9951 8.5477 -0.9951
v  -0.9951 8.5477 -0.9951
v  -1.4073 8.5477 0.0000
v  -0.9951 8.5477 0.9951
v  0.0000 8.5477 1.4073
v  0.9951 8.5477 0.9951
v  1.4073 8.5477 -0.0000
v  -0.0000 9.6162 -2.1369
v  1.5110 9.6162 -1.5110
v  -1.5110 9.6162 -1.5110
v  -2.1369 9.6162 0.0000
v  -1.5110 9.6162 1.5110
v  0.0000 9.6162 2.1369
v  1.5110 9.6162 1.5110
v  2.1369 9.6162 -0.0000
v  -0.0000 10.6847 -2.1369
v  1.5110 10.6847 -1.5110
v  -1.5110 10.6847 -1.5110
v  -2.1369 10.6847 0.0000
v  -1.5110 10.6847 1.5110
v  0.0000 10.6847 2.1369
v  1.5110 10.6847 1.5110
v  2.1369 10.6847 -0.0000
v  0.0000 10.6847 -0.0000
# 90 vertices

vn 0.0000 -1.0000 -0.0000
vn -0.0000 0.2766 -0.9610
vn 0.6795 0.2766 -0.6795
vn 0.7071 0.0000 -0.7071
vn -0.0000 0.0000 -1.0000
vn -0.6795 0.2766 -0.6795
vn -0.7071 0.0000 -0.7071
vn -0.9610 0.2766 0.0000
vn -1.0000 0.0000 0.0000
vn -0.6795 0.2766 0.6795
vn -0.7071 0.0000 0.7071
vn 0.0000 0.2766 0.9610
vn 0.0000 0.0000 1.0000
vn 0.6795 0.2766 0.6795
vn 0.7071 0.0000 0.7071
vn 0.9610 0.2766 -0.0000
vn 1.0000 0.0000 -0.0000
vn -0.0000 0.1803 -0.9836
vn 0.6955 0.1803 -0.6955
vn -0.6955 0.1803 -0.6955
vn -0.9836 0.1803 0.0000
vn -0.6955 0.1803 0.6955
vn 0.0000 0.1803 0.9836
vn 0.6955 0.1803 0.6955
vn 0.9836 0.1803 -0.0000
vn -0.0000 -0.2722 -0.9623
vn 0.6804 -0.2722 -0.6804
vn -0.6804 -0.2722 -0.6804
vn -0.9623 -0.2722 0.0000
vn -0.6804 -0.2722 0.6804
vn 0.0000 -0.2722 0.9623
vn 0.6804 -0.2722 0.6804
vn 0.9623 -0.2722 -0.0000
vn -0.0000 0.1467 -0.9892
vn 0.6995 0.1467 -0.6995
vn -0.6995 0.1467 -0.6995
vn -0.9892 0.1467 0.0000
vn -0.6995 0.1467 0.6995
vn 0.0000 0.1467 0.9892
vn 0.6995 0.1467 0.6995
vn 0.9892 0.1467 -0.0000
vn -0.0000 -0.1467 -0.9892
vn 0.6995 -0.1467 -0.6995
vn -0.6995 -0.1467 -0.6995
vn -0.9892 -0.1467 0.0000
vn -0.6995 -0.1467 0.6995
vn 0.0000 -0.1467 0.9892
vn 0.6995 -0.1467 0.6995
vn 0.9892 -0.1467 -0.0000
vn -0.0000 0.2722 -0.9623
vn 0.6804 0.2722 -0.6804
vn -0.6804 0.2722 -0.6804
vn -0.9623 0.2722 0.0000
vn -0.6804 0.2722 0.6804
vn 0.0000 0.2722 0.9623
vn 0.6804 0.2722 0.6804
vn 0.9623 0.2722 -0.0000
vn -0.0000 -0.1803 -0.9836
vn 0.6955 -0.1803 -0.6955
vn -0.6955 -0.1803 -0.6955
vn -0.9836 -0.1803 0.0000
vn -0.6955 -0.1803 0.6955
vn 0.0000 -0.1803 0.9836
vn 0.6955 -0.1803 0.6955
vn 0.9836 -0.1803 -0.0000
vn -0.0000 -0.2766 -0.9610
vn 0.6795 -0.2766 -0.6795
vn -0.6795 -0.2766 -0.6795
vn -0.9610 -0.2766 0.0000
vn -0.6795 -0.2766 0.6795
vn 0.0000 -0.2766 0.9610
vn 0.6795 -0.2766 0.6795
vn 0.9610 -0.2766 -0.0000
vn 0.0000 1.0000 -0.0000
# 74 vertex normals

vt 0.0000 0.1250 0.5000
vt 0.0000 0.0000 0.5000
vt 0.0000 0.0000 0.0000
vt 0.0000 0.2500 0.5000
vt 0.0000 0.3750 0.5000
vt 0.0000 0.5000 0.5000
vt 0.0000 0.6250 0.5000
vt 0.0000 0.7500 0.5000
vt 0.0000 0.8750 0.5000
vt 0.0000 0.9990 0.0000
vt 0.1000 0.1250 0.5000
vt 0.1000 0.0000 0.5000
vt 0.1000 0.2500 0.5000
vt 0.1000 0.3750 0.5000
vt 0.1000 0.5000 0.5000
vt 0.1000 0.6250 0.5000
vt 0.1000 0.7500 0.5000
vt 0.1000 0.8750 0.5000
vt 0.1000 0.9990 0.0000
vt 0.2000 0.1250 0.5000
vt 0.2000 0.0000 0.5000
vt 0.2000 0.2500 0.5000
vt 0.2000 0.3750 0.5000
vt 0.2000 0.5000 0.5000
vt 0.2000 0.6250 0.5000
vt 0.2000 0.7500 0.5000
vt 0.2000 0.8750 0.5000
vt 0.2000 0.9990 0.0000
vt 0.3000 0.1250 0.5000
vt 0.3000 0.0000 0.5000
vt 0.3000 0.2500 0.5000
vt 0.3000 0.3750 0.5000
vt 0.3000 0.5000 0.5000
vt 0.3000 0.6250 0.5000
vt 0.3000 0.7500 0.5000
vt 0.3000 0.8750 0.5000
vt 0.3000 0.9990 0.0000
vt 0.4000 0.1250 0.5000
vt 0.4000 0.0000 0.5000
vt 0.4000 0.2500 0.5000
vt 0.4000 0.3750 0.5000
vt 0.4000 0.5000 0.5000
vt 0.4000 0.6250 0.5000
vt 0.4000 0.7500 0.5000
vt 0.4000 0.8750 0.5000
vt 0.4000 0.9990 0.0000
vt 0.5000 0.1250 0.5000
vt 0.5000 0.0000 0.5000
vt 0.5000 0.2500 0.5000
vt 0.5000 0.3750 0.5000
vt 0.5000 0.5000 0.5000
vt 0.5000 0.6250 0.5000
vt 0.5000 0.7500 0.5000
vt 0.5000 0.8750 0.5000
vt 0.5000 0.9990 0.0000
vt 0.6000 0.1250 0.5000
vt 0.6000 0.0000 0.5000
vt 0.6000 0.2500 0.5000
vt 0.6000 0.3750 0.5000
vt 0.6000 0.5000 0.5000
vt 0.6000 0.6250 0.5000
vt 0.6000 0.7500 0.5000
vt 0.6000 0.8750 0.5000
vt 0.6000 0.9990 0.0000
vt 0.7000 0.1250 0.5000
vt 0.7000 0.0000 0.5000
vt 0.7000 0.2500 0.5000
vt 0.7000 0.3750 0.5000
vt 0.7000 0.5000 0.5000
vt 0.7000 0.6250 0.5000
vt 0.7000 0.7500 0.5000
vt 0.7000 0.8750 0.5000
vt 0.7000 0.9990 0.0000
vt 0.8000 0.1250 0.5000
vt 0.8000 0.0000 0.5000
vt 0.8000 0.2500 0.5000
vt 0.8000 0.3750 0.5000
vt 0.8000 0.5000 0.5000
vt 0.8000 0.6250 0.5000
vt 0.8000 0.7500 0.5000
vt 0.8000 0.8750 0.5000
vt 0.8000 0.9990 0.0000
vt 0.9000 0.1250 0.5000
vt 0.9000 0.0000 0.5000
vt 0.9000 0.2500 0.5000
vt 0.9000 0.3750 0.5000
vt 0.9000 0.5000 0.5000
vt 0.9000 0.6250 0.5000
vt 0.9000 0.7500 0.5000
vt 0.9000 0.8750 0.5000
vt 0.9000 0.9990 0.0000
vt 1.0000 0.1250 0.5000
vt 1.0000 0.0000 0.5000
vt 1.0000 0.2500 0.5000
vt 1.0000 0.3750 0.5000
vt 1.0000 0.5000 0.5000
vt 1.0000 0.6250 0.5000
vt 1.0000 0.7500 0.5000
vt 1.0000 0.8750 0.5000
vt 1.0000 0.9990 0.0000
vt 1.0000 1.0000 1.0000
# 101 texture coords

g Hose001
usemtl wire_087225143
s 1
f 1/1/1 2/2/1 3/3/1 
f 4/4/1 1/1/1 3/3/1 
f 5/5/1 4/4/1 3/3/1 
f 6/6/1 5/5/1 3/3/1 
f 7/7/1 6/6/1 3/3/1 
f 8/8/1 7/7/1 3/3/1 
f 9/9/1 8/8/1 3/3/1 
f 2/10/1 9/9/1 3/3/1 
s 2
f 10/11/2 11/12/3 2/2/4 
f 2/2/4 1/1/5 10/11/2 
f 12/13/6 10/11/2 1/1/5 
f 1/1/5 4/4/7 12/13/6 
f 13/14/8 12/13/6 4/4/7 
f 4/4/7 5/5/9 13/14/8 
f 14/15/10 13/14/8 5/5/9 
f 5/5/9 6/6/11 14/15/10 
f 15/16/12 14/15/10 6/6/11 
f 6/6/11 7/7/13 15/16/12 
f 16/17/14 15/16/12 7/7/13 
f 7/7/13 8/8/15 16/17/14 
f 17/18/16 16/17/14 8/8/15 
f 8/8/15 9/9/17 17/18/16 
f 11/19/3 17/18/16 9/9/17 
f 9/9/17 2/10/4 11/19/3 
f 18/20/18 19/21/19 11/12/3 
f 11/12/3 10/11/2 18/20/18 
f 20/22/20 18/20/18 10/11/2 
f 10/11/2 12/13/6 20/22/20 
f 21/23/21 20/22/20 12/13/6 
f 12/13/6 13/14/8 21/23/21 
f 22/24/22 21/23/21 13/14/8 
f 13/14/8 14/15/10 22/24/22 
f 23/25/23 22/24/22 14/15/10 
f 14/15/10 15/16/12 23/25/23 
f 24/26/24 23/25/23 15/16/12 
f 15/16/12 16/17/14 24/26/24 
f 25/27/25 24/26/24 16/17/14 
f 16/17/14 17/18/16 25/27/25 
f 19/28/19 25/27/25 17/18/16 
f 17/18/16 11/19/3 19/28/19 
f 26/29/26 27/30/27 19/21/19 
f 19/21/19 18/20/18 26/29/26 
f 28/31/28 26/29/26 18/20/18 
f 18/20/18 20/22/20 28/31/28 
f 29/32/29 28/31/28 20/22/20 
f 20/22/20 21/23/21 29/32/29 
f 30/33/30 29/32/29 21/23/21 
f 21/23/21 22/24/22 30/33/30 
f 31/34/31 30/33/30 22/24/22 
f 22/24/22 23/25/23 31/34/31 
f 32/35/32 31/34/31 23/25/23 
f 23/25/23 24/26/24 32/35/32 
f 33/36/33 32/35/32 24/26/24 
f 24/26/24 25/27/25 33/36/33 
f 27/37/27 33/36/33 25/27/25 
f 25/27/25 19/28/19 27/37/27 
f 34/38/34 35/39/35 27/30/27 
f 27/30/27 26/29/26 34/38/34 
f 36/40/36 34/38/34 26/29/26 
f 26/29/26 28/31/28 36/40/36 
f 37/41/37 36/40/36 28/31/28 
f 28/31/28 29/32/29 37/41/37 
f 38/42/38 37/41/37 29/32/29 
f 29/32/29 30/33/30 38/42/38 
f 39/43/39 38/42/38 30/33/30 
f 30/33/30 31/34/31 39/43/39 
f 40/44/40 39/43/39 31/34/31 
f 31/34/31 32/35/32 40/44/40 
f 41/45/41 40/44/40 32/35/32 
f 32/35/32 33/36/33 41/45/41 
f 35/46/35 41/45/41 33/36/33 
f 33/36/33 27/37/27 35/46/35 
f 42/47/5 43/48/4 35/39/35 
f 35/39/35 34/38/34 42/47/5 
f 44/49/7 42/47/5 34/38/34 
f 34/38/34 36/40/36 44/49/7 
f 45/50/9 44/49/7 36/40/36 
f 36/40/36 37/41/37 45/50/9 
f 46/51/11 45/50/9 37/41/37 
f 37/41/37 38/42/38 46/51/11 
f 47/52/13 46/51/11 38/42/38 
f 38/42/38 39/43/39 47/52/13 
f 48/53/15 47/52/13 39/43/39 
f 39/43/39 40/44/40 48/53/15 
f 49/54/17 48/53/15 40/44/40 
f 40/44/40 41/45/41 49/54/17 
f 43/55/4 49/54/17 41/45/41 
f 41/45/41 35/46/35 43/55/4 
f 50/56/42 51/57/43 43/48/4 
f 43/48/4 42/47/5 50/56/42 
f 52/58/44 50/56/42 42/47/5 
f 42/47/5 44/49/7 52/58/44 
f 53/59/45 52/58/44 44/49/7 
f 44/49/7 45/50/9 53/59/45 
f 54/60/46 53/59/45 45/50/9 
f 45/50/9 46/51/11 54/60/46 
f 55/61/47 54/60/46 46/51/11 
f 46/51/11 47/52/13 55/61/47 
f 56/62/48 55/61/47 47/52/13 
f 47/52/13 48/53/15 56/62/48 
f 57/63/49 56/62/48 48/53/15 
f 48/53/15 49/54/17 57/63/49 
f 51/64/43 57/63/49 49/54/17 
f 49/54/17 43/55/4 51/64/43 
f 58/65/50 59/66/51 51/57/43 
f 51/57/43 50/56/42 58/65/50 
f 60/67/52 58/65/50 50/56/42 
f 50/56/42 52/58/44 60/67/52 
f 61/68/53 60/67/52 52/58/44 
f 52/58/44 53/59/45 61/68/53 
f 62/69/54 61/68/53 53/59/45 
f 53/59/45 54/60/46 62/69/54 
f 63/70/55 62/69/54 54/60/46 
f 54/60/46 55/61/47 63/70/55 
f 64/71/56 63/70/55 55/61/47 
f 55/61/47 56/62/48 64/71/56 
f 65/72/57 64/71/56 56/62/48 
f 56/62/48 57/63/49 65/72/57 
f 59/73/51 65/72/57 57/63/49 
f 57/63/49 51/64/43 59/73/51 
f 66/74/58 67/75/59 59/66/51 
f 59/66/51 58/65/50 66/74/58 
f 68/76/60 66/74/58 58/65/50 
f 58/65/50 60/67/52 68/76/60 
f 69/77/61 68/76/60 60/67/52 
f 60/67/52 61/68/53 69/77/61 
f 70/78/62 69/77/61 61/68/53 
f 61/68/53 62/69/54 70/78/62 
f 71/79/63 70/78/62 62/69/54 
f 62/69/54 63/70/55 71/79/63 
f 72/80/64 71/79/63 63/70/55 
f 63/70/55 64/71/56 72/80/64 
f 73/81/65 72/80/64 64/71/56 
f 64/71/56 65/72/57 73/81/65 
f 67/82/59 73/81/65 65/72/57 
f 65/72/57 59/73/51 67/82/59 
f 74/83/66 75/84/67 67/75/59 
f 67/75/59 66/74/58 74/83/66 
f 76/85/68 74/83/66 66/74/58 
f 66/74/58 68/76/60 76/85/68 
f 77/86/69 76/85/68 68/76/60 
f 68/76/60 69/77/61 77/86/69 
f 78/87/70 77/86/69 69/77/61 
f 69/77/61 70/78/62 78/87/70 
f 79/88/71 78/87/70 70/78/62 
f 70/78/62 71/79/63 79/88/71 
f 80/89/72 79/88/71 71/79/63 
f 71/79/63 72/80/64 80/89/72 
f 81/90/73 80/89/72 72/80/64 
f 72/80/64 73/81/65 81/90/73 
f 75/91/67 81/90/73 73/81/65 
f 73/81/65 67/82/59 75/91/67 
f 82/92/5 83/93/4 75/84/67 
f 75/84/67 74/83/66 82/92/5 
f 84/94/7 82/92/5 74/83/66 
f 74/83/66 76/85/68 84/94/7 
f 85/95/9 84/94/7 76/85/68 
f 76/85/68 77/86/69 85/95/9 
f 86/96/11 85/95/9 77/86/69 
f 77/86/69 78/87/70 86/96/11 
f 87/97/13 86/96/11 78/87/70 
f 78/87/70 79/88/71 87/97/13 
f 88/98/15 87/97/13 79/88/71 
f 79/88/71 80/89/72 88/98/15 
f 89/99/17 88/98/15 80/89/72 
f 80/89/72 81/90/73 89/99/17 
f 83/100/4 89/99/17 81/90/73 
f 81/90/73 75/91/67 83/100/4 
s 1
f 83/93/74 82/92/74 90/101/74 
f 82/92/74 84/94/74 90/101/74 
f 84/94/74 85/95/74 90/101/74 
f 85/95/74 86/96/74 90/101/74 
f 86/96/74 87/97/74 90/101/74 
f 87/97/74 88/98/74 90/101/74 
f 88/98/74 89/99/74 90/101/74 
f 89/99/74 83/100/74 90/101/74 
# 176 faces

